<svg width="1042" height="2" viewBox="0 0 1042 2" fill="none" xmlns="http://www.w3.org/2000/svg">
<path d="M347 2C347.552 2 348 1.55228 348 1C348 0.447715 347.552 1.19209e-07 347 4.76837e-07V2ZM173.5 2.0001L177.838 2.0001L177.837 0.000100374L173.5 0.000102997L173.5 2.0001ZM186.513 2.0001L195.188 2.00009V9.01222e-05L186.512 9.52482e-05L186.513 2.0001ZM203.863 2.00009L212.537 2.00008V7.98702e-05L203.862 8.49962e-05L203.863 2.00009ZM221.212 2.00007L229.888 2.00007L229.887 6.96182e-05L221.212 7.47442e-05L221.212 2.00007ZM238.562 2.00006L247.238 2.00006V5.93662e-05L238.562 6.44922e-05V2.00006ZM255.913 2.00005L264.588 2.00005V4.91142e-05L255.913 5.42402e-05V2.00005ZM273.263 2.00004L281.938 2.00004L281.938 3.88622e-05L273.263 4.39882e-05V2.00004ZM290.613 2.00003L299.288 2.00003V2.86102e-05L290.613 3.37362e-05V2.00003ZM307.963 2.00002L316.638 2.00002V1.83582e-05L307.963 2.34842e-05V2.00002ZM325.313 2.00001L333.988 2.00001V8.10623e-06L325.313 1.32322e-05V2.00001ZM342.663 2L347 2V4.76837e-07L342.663 2.98023e-06V2Z" fill="#EFBD87"/>
<path d="M520.5 2C521.052 2 521.5 1.55228 521.5 1C521.5 0.447715 521.052 1.19209e-07 520.5 4.76837e-07V2ZM347 2.0001L351.338 2.0001L351.337 0.000100374L347 0.000102997L347 2.0001ZM360.013 2.0001L368.688 2.00009V9.01222e-05L360.012 9.52482e-05L360.013 2.0001ZM377.363 2.00009L386.037 2.00008V7.98702e-05L377.362 8.49962e-05L377.363 2.00009ZM394.712 2.00007L403.388 2.00007L403.387 6.96182e-05L394.712 7.47442e-05L394.712 2.00007ZM412.062 2.00006L420.738 2.00006V5.93662e-05L412.062 6.44922e-05V2.00006ZM429.413 2.00005L438.088 2.00005V4.91142e-05L429.413 5.42402e-05V2.00005ZM446.763 2.00004L455.438 2.00004L455.438 3.88622e-05L446.763 4.39882e-05V2.00004ZM464.113 2.00003L472.788 2.00003V2.86102e-05L464.113 3.37362e-05V2.00003ZM481.463 2.00002L490.138 2.00002V1.83582e-05L481.463 2.34842e-05V2.00002ZM498.813 2.00001L507.488 2.00001V8.10623e-06L498.813 1.32322e-05V2.00001ZM516.163 2L520.5 2V4.76837e-07L516.163 2.98023e-06V2Z" fill="#EFBD87"/>
<path d="M694 2C694.552 2 695 1.55228 695 1C695 0.447715 694.552 1.19209e-07 694 4.76837e-07V2ZM520.5 2.0001L524.838 2.0001L524.837 0.000100374L520.5 0.000102997L520.5 2.0001ZM533.513 2.0001L542.188 2.00009V9.01222e-05L533.512 9.52482e-05L533.513 2.0001ZM550.863 2.00009L559.537 2.00008V7.98702e-05L550.862 8.49962e-05L550.863 2.00009ZM568.212 2.00007L576.888 2.00007L576.887 6.96182e-05L568.212 7.47442e-05L568.212 2.00007ZM585.562 2.00006L594.238 2.00006V5.93662e-05L585.562 6.44922e-05V2.00006ZM602.913 2.00005L611.588 2.00005V4.91142e-05L602.913 5.42402e-05V2.00005ZM620.263 2.00004L628.938 2.00004L628.938 3.88622e-05L620.263 4.39882e-05V2.00004ZM637.613 2.00003L646.288 2.00003V2.86102e-05L637.613 3.37362e-05V2.00003ZM654.963 2.00002L663.638 2.00002V1.83582e-05L654.963 2.34842e-05V2.00002ZM672.313 2.00001L680.988 2.00001V8.10623e-06L672.313 1.32322e-05V2.00001ZM689.663 2L694 2V4.76837e-07L689.663 2.98023e-06V2Z" fill="#EFBD87"/>
<path d="M867.5 2C868.052 2 868.5 1.55228 868.5 1C868.5 0.447715 868.052 1.19209e-07 867.5 4.76837e-07V2ZM694 2.0001L698.338 2.0001L698.337 0.000100374L694 0.000102997L694 2.0001ZM707.013 2.0001L715.688 2.00009V9.01222e-05L707.012 9.52482e-05L707.013 2.0001ZM724.363 2.00009L733.037 2.00008V7.98702e-05L724.362 8.49962e-05L724.363 2.00009ZM741.712 2.00007L750.388 2.00007L750.387 6.96182e-05L741.712 7.47442e-05L741.712 2.00007ZM759.062 2.00006L767.738 2.00006V5.93662e-05L759.062 6.44922e-05V2.00006ZM776.413 2.00005L785.088 2.00005V4.91142e-05L776.413 5.42402e-05V2.00005ZM793.763 2.00004L802.438 2.00004L802.438 3.88622e-05L793.763 4.39882e-05V2.00004ZM811.113 2.00003L819.788 2.00003V2.86102e-05L811.113 3.37362e-05V2.00003ZM828.463 2.00002L837.138 2.00002V1.83582e-05L828.463 2.34842e-05V2.00002ZM845.813 2.00001L854.488 2.00001V8.10623e-06L845.813 1.32322e-05V2.00001ZM863.163 2L867.5 2V4.76837e-07L863.163 2.98023e-06V2Z" fill="#EFBD87"/>
<path d="M1041 2C1041.55 2 1042 1.55228 1042 1C1042 0.447715 1041.55 1.19209e-07 1041 4.76837e-07V2ZM867.5 2.0001L871.838 2.0001L871.837 0.000100374L867.5 0.000102997L867.5 2.0001ZM880.513 2.0001L889.188 2.00009V9.01222e-05L880.512 9.52482e-05L880.513 2.0001ZM897.863 2.00009L906.537 2.00008V7.98702e-05L897.862 8.49962e-05L897.863 2.00009ZM915.212 2.00007L923.888 2.00007L923.887 6.96182e-05L915.212 7.47442e-05L915.212 2.00007ZM932.562 2.00006L941.238 2.00006V5.93662e-05L932.562 6.44922e-05V2.00006ZM949.913 2.00005L958.588 2.00005V4.91142e-05L949.913 5.42402e-05V2.00005ZM967.263 2.00004L975.938 2.00004L975.938 3.88622e-05L967.263 4.39882e-05V2.00004ZM984.613 2.00003L993.288 2.00003V2.86102e-05L984.613 3.37362e-05V2.00003ZM1001.96 2.00002L1010.64 2.00002V1.83582e-05L1001.96 2.34842e-05V2.00002ZM1019.31 2.00001L1027.99 2.00001V8.10623e-06L1019.31 1.32322e-05V2.00001ZM1036.66 2L1041 2V4.76837e-07L1036.66 2.98023e-06V2Z" fill="#EFBD87"/>
</svg>